<?xml version="1.0" standalone="no"?>
<!DOCTYPE svg PUBLIC "-//W3C//DTD SVG 20010904//EN"
 "http://www.w3.org/TR/2001/REC-SVG-20010904/DTD/svg10.dtd">
<svg version="1.0" xmlns="http://www.w3.org/2000/svg"
 width="640.000000pt" height="640.000000pt" viewBox="0 0 640.000000 640.000000"
 preserveAspectRatio="xMidYMid meet">

<g transform="translate(0.000000,640.000000) scale(0.100000,-0.100000)"
fill="#000000" stroke="none">
<path d="M0 3200 l0 -3200 3200 0 3200 0 0 3200 0 3200 -3200 0 -3200 0 0
-3200z m2088 1577 c11 -13 39 -86 147 -387 36 -102 70 -189 74 -193 4 -4 52
117 106 270 54 153 104 288 112 301 12 20 21 22 109 22 77 0 96 -3 101 -16 3
-9 -28 -102 -70 -207 -42 -106 -112 -282 -155 -392 l-78 -200 -122 -3 c-145
-3 -126 -20 -207 188 -31 80 -97 248 -147 373 -73 184 -87 231 -78 242 16 20
192 21 208 2z m1277 -15 c223 -102 235 -387 19 -493 -59 -29 -75 -32 -184 -37
-78 -3 -120 -9 -121 -16 0 -6 0 -57 1 -114 1 -67 -3 -109 -11 -118 -8 -10 -36
-14 -100 -14 -78 0 -90 2 -99 20 -7 13 -10 144 -8 400 3 325 5 382 18 391 9 6
96 9 225 7 193 -3 214 -5 260 -26z m488 6 c14 -13 109 -123 211 -245 102 -122
191 -225 196 -228 7 -4 10 80 10 238 0 214 2 246 16 251 31 12 172 6 186 -7
10 -11 12 -89 8 -408 l-5 -394 -92 -3 c-89 -3 -92 -2 -117 25 -15 15 -106 121
-204 235 -97 114 -180 207 -184 207 -4 1 -9 -104 -10 -231 l-3 -233 -100 0
-100 0 -3 394 c-1 282 1 398 9 407 8 10 35 14 85 14 62 0 77 -3 97 -22z m-526
-1532 c212 -99 240 -374 52 -509 l-36 -26 36 -210 c43 -252 48 -238 -89 -254
-100 -12 -259 2 -286 24 -19 16 -18 29 21 243 l34 190 -59 55 c-102 96 -131
212 -81 327 28 65 103 139 167 164 72 28 175 26 241 -4z"/>
<path d="M3086 4611 c-12 -19 -10 -191 1 -202 7 -7 45 -10 98 -8 81 4 88 6
111 32 35 41 33 106 -4 148 -26 29 -33 31 -113 36 -59 4 -88 2 -93 -6z"/>
</g>
</svg>
